<?xml version="1.0" encoding="UTF-8" standalone="no"?>
<!-- Created with Inkscape (http://www.inkscape.org/) -->

<svg
   version="1.1"
   id="svg1"
   width="300"
   height="300"
   viewBox="0 0 300 300"
   sodipodi:docname="python.svg"
   inkscape:version="1.3.2 (091e20ef0f, 2023-11-25)"
   inkscape:export-filename="python.png"
   inkscape:export-xdpi="32"
   inkscape:export-ydpi="32"
   xmlns:inkscape="http://www.inkscape.org/namespaces/inkscape"
   xmlns:sodipodi="http://sodipodi.sourceforge.net/DTD/sodipodi-0.dtd"
   xmlns="http://www.w3.org/2000/svg"
   xmlns:svg="http://www.w3.org/2000/svg">
  <defs
     id="defs1" />
  <sodipodi:namedview
     id="namedview1"
     pagecolor="#ffffff"
     bordercolor="#000000"
     borderopacity="0.25"
     inkscape:showpageshadow="2"
     inkscape:pageopacity="0.0"
     inkscape:pagecheckerboard="0"
     inkscape:deskcolor="#d1d1d1"
     inkscape:zoom="2.5933333"
     inkscape:cx="150"
     inkscape:cy="150"
     inkscape:window-width="1920"
     inkscape:window-height="997"
     inkscape:window-x="0"
     inkscape:window-y="0"
     inkscape:window-maximized="1"
     inkscape:current-layer="g2" />
  <g
     inkscape:groupmode="layer"
     inkscape:label="Image"
     id="g1">
    <g
       id="g2"
       transform="translate(-3.3666731,3.2978048)">
      <path
         style="fill:#aaaaaa;fill-opacity:1"
         d="m 147.28017,289.26373 c 2.6291,-0.20668 6.6791,-0.20418 9,0.006 2.32091,0.20972 0.16983,0.37882 -4.78017,0.37577 -4.95,-0.003 -6.84892,-0.17464 -4.21983,-0.38131 z M 131.75,288.33772 c 0.6875,-0.27741 1.8125,-0.27741 2.5,0 0.6875,0.27741 0.125,0.50439 -1.25,0.50439 -1.375,0 -1.9375,-0.22698 -1.25,-0.50439 z m 38,0 c 0.6875,-0.27741 1.8125,-0.27741 2.5,0 0.6875,0.27741 0.125,0.50439 -1.25,0.50439 -1.375,0 -1.9375,-0.22698 -1.25,-0.50439 z m -44.9375,-1.02083 c 0.72187,-0.28887 1.58437,-0.25335 1.91667,0.0789 0.33229,0.33229 -0.25834,0.56864 -1.3125,0.52522 -1.16495,-0.048 -1.4019,-0.28494 -0.60417,-0.60416 z m 54,0 c 0.72187,-0.28887 1.58437,-0.25335 1.91667,0.0789 0.33229,0.33229 -0.25834,0.56864 -1.3125,0.52522 -1.16495,-0.048 -1.4019,-0.28494 -0.60417,-0.60416 z M 94.872445,276.25 c -1.243871,-1.58606 -1.208501,-1.62143 0.377555,-0.37756 0.9625,0.75485 1.75,1.54235 1.75,1.75 0,0.82304 -0.821186,0.29331 -2.127555,-1.37244 z m -9.413564,-10.31653 c -0.362533,-0.58659 -0.444683,-1.281 -0.182555,-1.54313 0.262128,-0.26213 0.743066,0.21781 1.068751,1.06653 0.676184,1.76211 0.09985,2.07206 -0.886196,0.4766 z M 179.92431,264.25 177.5,261.5 l 2.75,2.42431 c 2.57029,2.26589 3.20859,3.07569 2.42431,3.07569 -0.17912,0 -1.41662,-1.2375 -2.75,-2.75 z M 201.15789,256 c 0,-1.375 0.22698,-1.9375 0.50439,-1.25 0.27741,0.6875 0.27741,1.8125 0,2.5 -0.27741,0.6875 -0.50439,0.125 -0.50439,-1.25 z m -18.42456,-11.12409 c 0.67834,-0.68342 1.48524,-0.99067 1.79313,-0.68278 0.30789,0.30789 -0.24711,0.86705 -1.23333,1.24258 -1.4252,0.54268 -1.54006,0.42782 -0.5598,-0.5598 z m 4.51667,-1.56524 c 0.9625,-0.25152 2.5375,-0.25152 3.5,0 0.9625,0.25153 0.175,0.45733 -1.75,0.45733 -1.925,0 -2.7125,-0.2058 -1.75,-0.45733 z m 64.5625,-26.99378 c 0.72187,-0.28887 1.58437,-0.25335 1.91667,0.0789 0.33229,0.33229 -0.25834,0.56864 -1.3125,0.52522 -1.16495,-0.048 -1.4019,-0.28494 -0.60417,-0.60416 z M 83.078947,183.41667 c 0.04798,-1.16495 0.284941,-1.4019 0.604167,-0.60417 0.288871,0.72187 0.253344,1.58437 -0.07895,1.91667 -0.332292,0.33229 -0.568641,-0.25834 -0.52522,-1.3125 z m 206.000003,-13 c 0.048,-1.16495 0.28494,-1.4019 0.60416,-0.60417 0.28887,0.72187 0.25335,1.58437 -0.0789,1.91667 -0.33229,0.33229 -0.56864,-0.25834 -0.52522,-1.3125 z M 89.5,168 c 0.995486,-1.1 2.034975,-2 2.309975,-2 0.275,0 -0.314489,0.9 -1.309975,2 -0.995486,1.1 -2.034975,2 -2.309975,2 -0.275,0 0.314489,-0.9 1.309975,-2 z m -79.421053,-4.58333 c 0.04798,-1.16495 0.284941,-1.4019 0.604167,-0.60417 0.288871,0.72187 0.253344,1.58437 -0.07895,1.91667 -0.332292,0.33229 -0.568641,-0.25834 -0.52522,-1.3125 z M 94,163.62244 c 0,-0.20765 0.7875,-0.99515 1.75,-1.75 1.586056,-1.24387 1.621426,-1.2085 0.377555,0.37756 C 94.821186,163.91575 94,164.44548 94,163.62244 Z m 5.44113,-4.06727 C 100.50875,158.69982 101.82125,158 102.3578,158 c 1.27054,0 0.70323,0.4619 -2.3578,1.91971 -2.357268,1.12265 -2.389176,1.10183 -0.55887,-0.36454 z m 16.8279,-5.24816 c 0.97297,-0.25354 2.32297,-0.23687 3,0.0371 0.67703,0.27393 -0.11903,0.48137 -1.76903,0.46099 -1.65,-0.0204 -2.20394,-0.2445 -1.23097,-0.49804 z M 215.5,144 c 2.14824,-2.2 4.1309,-4 4.4059,-4 0.275,0 -1.25766,1.8 -3.4059,4 -2.14824,2.2 -4.1309,4 -4.4059,4 -0.275,0 1.25766,-1.8 3.4059,-4 z m -32.6875,1.31689 c 0.72187,-0.28887 1.58437,-0.25335 1.91667,0.0789 0.33229,0.33229 -0.25834,0.56864 -1.3125,0.52522 -1.16495,-0.048 -1.4019,-0.28494 -0.60417,-0.60416 z M 10.078947,136.41667 c 0.04798,-1.16495 0.284941,-1.4019 0.604167,-0.60417 0.288871,0.72187 0.253344,1.58437 -0.07895,1.91667 -0.332292,0.33229 -0.568641,-0.25834 -0.52522,-1.3125 z m 279.000003,-8 c 0.048,-1.16495 0.28494,-1.4019 0.60416,-0.60417 0.28887,0.72187 0.25335,1.58437 -0.0789,1.91667 -0.33229,0.33229 -0.56864,-0.25834 -0.52522,-1.3125 z M 227.42019,100.5 c -8.9e-4,-11 0.14522,-15.636437 0.32467,-10.303194 0.17945,5.333244 0.18018,14.333244 0.002,20.000004 -0.17857,5.66675 -0.3254,1.30319 -0.32628,-9.69681 z m -8.97001,-23 c 3.4e-4,-19.25 0.13469,-26.983473 0.29856,-17.185495 0.16386,9.797978 0.16358,25.547978 -6.2e-4,35 C 218.58391,104.76653 218.44984,96.75 218.45018,77.5 Z M 264,84.5 c -1.375,-0.786021 -2.02351,-1.445075 -1.44113,-1.464565 0.58238,-0.01949 1.93238,0.625253 3,1.432762 2.46898,1.86744 1.68038,1.883528 -1.55887,0.0318 z M 75.75,82.250788 c 13.8875,-0.156822 36.6125,-0.156822 50.5,0 13.8875,0.156821 2.525,0.28513 -25.25,0.28513 -27.775,0 -39.1375,-0.128309 -25.25,-0.28513 z m 180.0625,-0.933902 c 0.72187,-0.288871 1.58438,-0.253344 1.91667,0.07895 0.33229,0.332292 -0.25834,0.568641 -1.3125,0.52522 -1.16495,-0.04798 -1.4019,-0.284941 -0.60417,-0.604167 z M 82.413177,55.5 c 10e-4,-9.9 0.150701,-13.814738 0.33256,-8.699419 0.181859,5.11532 0.181001,13.21532 -0.0019,18 C 82.560922,69.585262 82.412129,65.4 82.413177,55.5 Z M 102.87244,52.25 C 101.62857,50.663944 101.66394,50.628574 103.25,51.872445 104.91575,53.178814 105.44548,54 104.62244,54 c -0.20765,0 -0.99515,-0.7875 -1.75,-1.75 z M 132.75,10.337719 c 0.6875,-0.277412 1.8125,-0.277412 2.5,0 0.6875,0.277413 0.125,0.504386 -1.25,0.504386 -1.375,0 -1.9375,-0.226973 -1.25,-0.504386 z m 31.0625,-0.02083 c 0.72187,-0.288871 1.58437,-0.253344 1.91667,0.07895 0.33229,0.332292 -0.25834,0.568641 -1.3125,0.52522 -1.16495,-0.04798 -1.4019,-0.284941 -0.60417,-0.604167 z"
         id="path4" />
      <path
         style="fill:#7f7f7f;fill-opacity:1"
         d="M 126.54085,287.47875 C 105.93262,284.1274 92.604518,276.93792 86.471097,265.86422 L 83.5,260.5 V 221 c 0,-38.61976 0.05001,-39.62351 2.244233,-45.04255 3.773756,-9.32 12.064248,-16.29845 23.755767,-19.99621 2.83267,-0.89591 16.69476,-1.43964 47.5,-1.86317 l 43.5,-0.59807 6.24748,-2.88543 c 6.78794,-3.13505 12.83912,-8.92375 16.18574,-15.48368 3.92991,-7.70324 5.03631,-15.47519 5.052,-35.487742 L 228,80.786296 l 15.25,0.401023 c 14.35269,0.377427 15.57362,0.566734 20.75,3.217307 10.76802,5.513782 18.62646,16.767974 23.21978,33.253424 1.95389,7.01248 2.19004,10.32761 2.23261,31.34195 0.0439,21.65123 -0.1338,24.1266 -2.25828,31.46489 -5.82017,20.10371 -16.90085,31.99626 -32.99333,35.41073 C 250.68531,216.62153 232.2561,217 199.45078,217 H 150 v 5 5 h 34.05943 34.05942 l -0.30942,19.41742 -0.30943,19.41743 -3,4.24409 c -5.48226,7.75575 -15.30017,13.02465 -30.58597,16.41434 -10.59115,2.34863 -45.3224,2.94519 -57.37318,0.98547 z m 69.94547,-21.64665 c 6.12583,-4.81858 6.76595,-13.42598 1.3977,-18.79424 -5.10946,-5.10946 -12.45824,-5.17927 -17.26317,-0.164 -8.08413,8.43801 -3.08661,21.12614 8.32102,21.12614 3.39783,0 5.58878,-0.62957 7.54445,-2.1679 z M 73.416832,199.5 c 9.61e-4,-10.45 0.149144,-14.58913 0.329296,-9.19806 0.180152,5.39107 0.179366,13.94107 -0.0017,19 -0.181113,5.05893 -0.32851,0.64806 -0.327549,-9.80194 z M 26.946167,208.25 23.5,204.5 l 3.75,3.44617 C 30.740419,211.15378 31.459787,212 30.696167,212 c -0.167108,0 -1.854608,-1.6875 -3.75,-3.75 z M 10.157895,160 c 0,-1.375 0.226973,-1.9375 0.504386,-1.25 0.277412,0.6875 0.277412,1.8125 0,2.5 -0.277413,0.6875 -0.504386,0.125 -0.504386,-1.25 z M 126.25,145.25138 c 10.3125,-0.16253 27.1875,-0.16253 37.5,0 10.3125,0.16253 1.875,0.2955 -18.75,0.2955 -20.625,0 -29.0625,-0.13297 -18.75,-0.2955 z M 10.157895,140 c 0,-1.375 0.226973,-1.9375 0.504386,-1.25 0.277412,0.6875 0.277412,1.8125 0,2.5 -0.277413,0.6875 -0.504386,0.125 -0.504386,-1.25 z M 209,133.62244 c 0,-0.20765 0.7875,-0.99515 1.75,-1.75 1.58606,-1.24387 1.62143,-1.2085 0.37756,0.37756 C 209.82119,133.91575 209,134.44548 209,133.62244 Z M 26.5,94 c 0.995486,-1.1 2.034975,-2 2.309975,-2 0.275,0 -0.314489,0.9 -1.309975,2 -0.995486,1.1 -2.034975,2 -2.309975,2 -0.275,0 0.314489,-0.9 1.309975,-2 z M 99.078947,43.416667 c 0.04798,-1.164943 0.284941,-1.4019 0.604167,-0.604167 0.288871,0.721875 0.253344,1.584375 -0.07895,1.916667 -0.332292,0.332291 -0.568641,-0.258334 -0.52522,-1.3125 z M 110.26903,31.307009 c 0.97297,-0.253543 2.32297,-0.236869 3,0.03705 0.67703,0.273923 -0.11903,0.481368 -1.76903,0.460988 -1.65,-0.02038 -2.20394,-0.244498 -1.23097,-0.498042 z M 209.43709,26.75 206.5,23.5 l 3.25,2.937091 C 212.77946,29.174872 213.45965,30 212.68709,30 c -0.1721,0 -1.6346,-1.4625 -3.25,-3.25 z M 88,26.622445 c 0,-0.207656 0.7875,-0.995156 1.75,-1.75 C 91.336056,23.628574 91.371426,23.663944 90.127555,25.25 88.821186,26.915748 88,27.445479 88,26.622445 Z m 48.75,-16.284726 c 0.6875,-0.277412 1.8125,-0.277412 2.5,0 0.6875,0.277413 0.125,0.504386 -1.25,0.504386 -1.375,0 -1.9375,-0.226973 -1.25,-0.504386 z m 23,0 c 0.6875,-0.277412 1.8125,-0.277412 2.5,0 0.6875,0.277413 0.125,0.504386 -1.25,0.504386 -1.375,0 -1.9375,-0.226973 -1.25,-0.504386 z"
         id="path3" />
      <path
         style="fill:#1c1c1c;fill-opacity:1"
         d="M 43.406903,217.59349 C 29.945035,214.32542 18.978568,201.26673 14.120709,182.71996 11.352127,172.14982 9.6763739,153.33919 10.493152,142 12.665342,111.84388 21.615368,94.230369 38.879989,86.135165 L 44.5,83.5 97.75,83.216603 151,82.933206 V 77.966603 73 H 117 83 L 83.02196,54.75 C 83.047093,33.866917 83.752361,31.146208 90.783963,24.806571 101.84816,14.831176 119.09262,10.684354 149.5,10.686968 c 15.73502,0.0014 20.80433,0.380199 29.5,2.204632 13.99823,2.93696 24.5932,7.927674 30.83027,14.522452 8.37116,8.851266 8.3236,8.534462 7.97465,53.124004 L 217.5,119.5 214.8872,125 c -2.77971,5.85134 -8.53695,12.2296 -13.25089,14.68021 -9.08467,4.72281 -8.95717,4.7105 -55.13631,5.31956 -42.66019,0.56263 -44.17362,0.64924 -49.701632,2.84402 -7.089109,2.81458 -14.511225,9.37531 -18.131781,16.02747 -4.344728,7.9827 -5.629712,16.37121 -5.649223,36.87874 L 73,219 60.75,218.915 c -6.7375,-0.0468 -14.541893,-0.64143 -17.343097,-1.32146 z M 119.89402,53.435724 c 8.1152,-6.828488 4.32859,-19.990128 -6.32624,-21.988985 C 105.37982,29.910667 97.73142,38.575135 99.962235,46.859751 101.52869,52.677111 105.90495,56 112,56 c 3.74309,0 5.54039,-0.583831 7.89402,-2.564276 z"
         id="path2" />
    </g>
  </g>
</svg>
