<?xml version="1.0" encoding="UTF-8" standalone="no"?>
<!-- Created with Inkscape (http://www.inkscape.org/) -->

<svg
   version="1.1"
   id="svg1"
   width="256"
   height="256"
   viewBox="0 0 256 256"
   sodipodi:docname="QGIS.svg"
   inkscape:version="1.3.2 (091e20ef0f, 2023-11-25)"
   xml:space="preserve"
   inkscape:export-filename="QGIS.png"
   inkscape:export-xdpi="96"
   inkscape:export-ydpi="96"
   xmlns:inkscape="http://www.inkscape.org/namespaces/inkscape"
   xmlns:sodipodi="http://sodipodi.sourceforge.net/DTD/sodipodi-0.dtd"
   xmlns="http://www.w3.org/2000/svg"
   xmlns:svg="http://www.w3.org/2000/svg"><defs
     id="defs1" /><sodipodi:namedview
     id="namedview1"
     pagecolor="#ffffff"
     bordercolor="#000000"
     borderopacity="0.25"
     inkscape:showpageshadow="2"
     inkscape:pageopacity="0.0"
     inkscape:pagecheckerboard="0"
     inkscape:deskcolor="#d1d1d1"
     inkscape:zoom="2.9693813"
     inkscape:cx="113.15489"
     inkscape:cy="133.02434"
     inkscape:window-width="1920"
     inkscape:window-height="997"
     inkscape:window-x="0"
     inkscape:window-y="0"
     inkscape:window-maximized="1"
     inkscape:current-layer="g1" /><g
     inkscape:groupmode="layer"
     inkscape:label="Image"
     id="g1"><path
       style="fill:#ababab;fill-opacity:1"
       d="m 160.71144,197.31329 -50.80198,-50.68116 v -16.84649 -16.84648 l 17.56045,0.003 17.56045,0.003 22.2175,22.02125 c 12.21963,12.11169 24.69401,24.45002 27.72085,27.41853 3.02684,2.9685 16.20701,15.96542 29.28925,28.88205 l 23.7859,23.48477 v 16.63418 16.63417 l -18.26522,-0.0126 -18.26522,-0.0126 z m -41.28762,43.03435 c -8.44999,-0.67826 -12.0588,-1.15468 -18.44142,-2.43457 C 38.361836,225.35601 -0.55015843,170.32531 9.1254536,108.00579 18.584161,47.083336 76.567772,6.8288543 143.79476,14.513111 c 71.73744,8.199816 116.74896,69.318902 101.63866,138.010479 -1.96295,8.92357 -8.45425,25.69374 -11.5265,29.77853 l -0.31079,0.41322 -18.17467,-18.17734 -18.17467,-18.17735 0.48866,-2.08682 c 10.2158,-43.6266 -18.13067,-85.456334 -61.27976,-90.428065 l -3.40637,-0.39249 -5.99052,0.117693 -5.99053,0.117694 -3.13701,0.495334 C 84.724695,59.427306 60.424841,84.741071 56.455417,118.22491 l -0.389892,3.28892 0.002,5.16829 c 0.01475,37.75821 26.645459,68.39798 63.943575,73.56984 l 2.93653,0.40719 5.63814,-0.005 5.63814,-0.005 2.9562,-0.40517 c 1.62591,-0.22284 3.95164,-0.60999 5.16829,-0.86032 l 2.2121,-0.45515 16.15092,16.14592 c 8.883,8.88025 16.15092,16.20441 16.15092,16.2759 0,0.28263 -6.80349,2.63202 -11.59571,4.00425 -14.26748,4.08542 -32.45887,6.06638 -45.84283,4.99207 z"
       id="path8" /><path
       style="fill:#303030;fill-opacity:1"
       d="m 182.63284,219.01996 -28.84926,-28.71288 0.0713,-17.50173 0.0713,-17.50172 16.76674,-0.0603 16.76674,-0.0603 0.9699,0.86475 c 0.53345,0.47561 9.26854,9.06269 19.41132,19.08241 10.14278,10.01971 23.31712,23.03067 29.27632,28.91325 l 10.83491,10.69558 0.0302,16.50331 0.0303,16.5033 -18.26522,-0.006 -18.26522,-0.006 z m -63.47527,21.1803 C 52.009702,236.23442 3.6932096,183.63693 7.9336596,119.12157 11.66712,62.319762 53.946469,20.62676 114.2242,14.305116 l 3.99368,-0.418839 9.63182,0.0078 9.63182,0.0078 3.87622,0.404609 c 62.1336,6.485653 105.13978,50.439824 106.81074,109.165154 0.57229,20.11313 -5.44068,44.84501 -14.21214,58.45578 l -0.35277,0.54739 -18.169,-18.16658 -18.169,-18.16657 0.12904,-0.33819 c 0.39394,-1.03248 1.55411,-7.66704 1.86871,-10.68639 4.29914,-41.261427 -22.56921,-76.361961 -62.25164,-81.324905 l -3.28891,-0.411334 -5.1683,0.0027 c -45.766594,0.0243 -79.44478,40.761482 -71.509319,86.497769 6.850877,39.48526 44.580389,66.67303 83.136729,59.90806 1.48657,-0.26083 3.07286,-0.52574 3.52509,-0.58869 l 0.82223,-0.11446 16.20965,16.07574 16.20965,16.07574 -0.93969,0.40106 c -14.76783,6.30289 -37.39578,9.71053 -56.85124,8.56146 z m 5.46039,-79.06023 -14.74294,-14.71109 0.0603,-16.70568 0.0603,-16.70567 17.37486,-0.0603 17.37486,-0.0603 4.47292,4.40583 c 2.46012,2.4232 8.84892,8.74036 14.19734,14.03814 l 9.7244,9.63232 -16.72229,0.11746 -16.72229,0.11746 0.0133,17.32554 c 0.007,9.52904 -0.068,17.32368 -0.16725,17.32142 -0.0993,-0.002 -6.81486,-6.62411 -14.92348,-14.71521 z"
       id="path6" /></g></svg>
