<?xml version="1.0" encoding="UTF-8" standalone="no"?>
<svg
   height="512"
   width="512"
   preserveAspectRatio="xMidYMid"
   viewBox="-108.1641 -139.0155 399.96679 533.81952"
   version="1.1"
   id="svg5"
   sodipodi:docname="R_(programming_language)-Logo.wine.svg"
   inkscape:version="1.3.2 (091e20ef0f, 2023-11-25)"
   xmlns:inkscape="http://www.inkscape.org/namespaces/inkscape"
   xmlns:sodipodi="http://sodipodi.sourceforge.net/DTD/sodipodi-0.dtd"
   xmlns:xlink="http://www.w3.org/1999/xlink"
   xmlns="http://www.w3.org/2000/svg"
   xmlns:svg="http://www.w3.org/2000/svg">
  <sodipodi:namedview
     id="namedview5"
     pagecolor="#ffffff"
     bordercolor="#000000"
     borderopacity="0.25"
     inkscape:showpageshadow="2"
     inkscape:pageopacity="0.0"
     inkscape:pagecheckerboard="0"
     inkscape:deskcolor="#d1d1d1"
     inkscape:zoom="0.91833333"
     inkscape:cx="433.39383"
     inkscape:cy="344.10163"
     inkscape:window-width="1920"
     inkscape:window-height="997"
     inkscape:window-x="0"
     inkscape:window-y="0"
     inkscape:window-maximized="1"
     inkscape:current-layer="svg5" />
  <defs
     id="defs4">
    <linearGradient
       gradientTransform="matrix(1.22194,0,0,0.81837,-0.906,-3)"
       spreadMethod="pad"
       gradientUnits="userSpaceOnUse"
       y2="593.78699"
       y1="3.6659999"
       x2="590.86298"
       x1="0.741"
       id="a"
       xlink:href="#b">
      <stop
         stop-color="#CBCED0"
         offset="0"
         id="stop1"
         style="stop-color:#38393e;stop-opacity:1;" />
      <stop
         stop-color="#84838B"
         offset="1"
         id="stop2" />
    </linearGradient>
    <linearGradient
       gradientTransform="matrix(0.98995,0,0,1.01015,-0.906,-3)"
       spreadMethod="pad"
       gradientUnits="userSpaceOnUse"
       y2="553.44202"
       y1="151.401"
       x2="703.06799"
       x1="301.026"
       id="b">
      <stop
         stop-color="#276DC3"
         offset="0"
         id="stop3" />
      <stop
         stop-color="#165CAA"
         offset="1"
         id="stop4" />
    </linearGradient>
  </defs>
  <g
     id="g5"
     transform="matrix(0.69825811,0,0,0.69825811,-159.50519,-57.108668)">
    <path
       fill-rule="evenodd"
       fill="url(#a)"
       d="M 360.547,482.937 C 161.423,482.937 0,374.828 0,241.469 0,108.109 161.423,0 360.547,0 c 199.125,0 360.547,108.109 360.547,241.469 0,133.359 -161.422,241.468 -360.547,241.468 z M 415.735,94.406 c -151.352,0 -274.047,73.908 -274.047,165.078 0,91.17 122.695,165.078 274.047,165.078 151.351,0 263.046,-50.529 263.046,-165.078 0,-114.513 -111.695,-165.078 -263.046,-165.078 z"
       id="path4"
       style="fill:#000000;fill-opacity:1" />
    <path
       fill-rule="evenodd"
       fill="url(#b)"
       d="m 549.094,374 c 0,0 21.822,6.585 34.5,13 4.399,2.226 12.01,6.668 17.5,12.5 5.378,5.712 8,11.5 8,11.5 l 86,145 -139,0.062 -65,-122.062 c 0,0 -13.31,-22.869 -21.5,-29.5 -6.832,-5.531 -9.745,-7.5 -16.5,-7.5 h -33.026 l 0.026,158.974 -123,0.052 V 149.938 h 247 c 0,0 112.5,2.029 112.5,109.062 0,107.033 -107.5,115 -107.5,115 z m -53.5,-135.976 -74.463,-0.048 -0.037,69.05 74.5,-0.024 c 0,0 34.5,-0.107 34.5,-35.125 0,-35.722 -34.5,-33.853 -34.5,-33.853 z"
       id="path5"
       style="fill:#000000;fill-opacity:1;stroke:#ffffff;stroke-width:21.1224;stroke-dasharray:none;stroke-opacity:1;paint-order:stroke fill markers" />
  </g>
</svg>
