<?xml version="1.0" encoding="UTF-8" standalone="no"?>
<!-- Created with Inkscape (http://www.inkscape.org/) -->

<svg
   version="1.1"
   id="svg1"
   width="100"
   height="100"
   viewBox="0 0 100 100"
   sodipodi:docname="SQL.svg"
   inkscape:version="1.3.2 (091e20ef0f, 2023-11-25)"
   xmlns:inkscape="http://www.inkscape.org/namespaces/inkscape"
   xmlns:sodipodi="http://sodipodi.sourceforge.net/DTD/sodipodi-0.dtd"
   xmlns="http://www.w3.org/2000/svg"
   xmlns:svg="http://www.w3.org/2000/svg">
  <defs
     id="defs1" />
  <sodipodi:namedview
     id="namedview1"
     pagecolor="#ffffff"
     bordercolor="#000000"
     borderopacity="0.25"
     inkscape:showpageshadow="2"
     inkscape:pageopacity="0.0"
     inkscape:pagecheckerboard="0"
     inkscape:deskcolor="#d1d1d1"
     inkscape:zoom="4.2248468"
     inkscape:cx="53.256369"
     inkscape:cy="57.516878"
     inkscape:window-width="1920"
     inkscape:window-height="997"
     inkscape:window-x="0"
     inkscape:window-y="0"
     inkscape:window-maximized="1"
     inkscape:current-layer="g1" />
  <g
     inkscape:groupmode="layer"
     inkscape:label="Image"
     id="g1">
    <path
       style="fill:#1a1a1a;stroke-width:0.19055;fill-opacity:1"
       d="M 45.347582,97.712979 C 38.227195,97.169908 32.552048,96.143025 27.479039,94.479802 20.719146,92.263517 15.953897,89.12849 14.325064,85.825884 L 13.716179,84.59131 V 49.144894 13.698475 l 0.522737,-1.115901 c 0.629728,-1.344303 2.726855,-3.5155253 4.526857,-4.6867969 4.086555,-2.6591555 10.492421,-4.8546052 17.819753,-6.107274 7.809646,-1.33512651 18.416345,-1.36885945 26.102151,-0.083014 8.469875,1.4170183 15.332396,3.9502205 19.671997,7.2616297 1.604643,1.2244528 2.679952,2.4462728 3.425316,3.8920218 l 0.530968,1.029887 V 49.426714 84.9644 l -0.493329,1.051654 c -2.517385,5.366511 -13.11865,9.821881 -27.004116,11.348967 -2.4759,0.272284 -11.43046,0.503595 -13.470931,0.347958 z M 61.258556,67.255394 c 0,-0.04569 -1.451071,-1.324256 -3.2246,-2.841258 l -3.224589,-2.758182 0.594901,-0.246416 c 0.825054,-0.341749 2.819004,-2.360648 3.43573,-3.478712 0.929689,-1.685459 1.304487,-3.253407 1.303999,-5.455304 -7.6e-4,-3.092131 -0.703029,-5.110332 -2.457795,-7.062413 -1.722494,-1.916179 -4.002782,-2.877507 -6.907931,-2.912258 -2.048558,-0.0245 -3.431306,0.261569 -4.954319,1.024984 -3.039084,1.523344 -4.943372,4.544429 -5.260351,8.345371 -0.439173,5.265993 2.673078,9.57014 7.670549,10.608144 1.472624,0.305872 1.462346,0.29748 4.727784,3.858727 l 0.91729,1.000392 h 3.689672 c 2.029308,0 3.68966,-0.03739 3.68966,-0.08307 z M 48.938688,57.252608 c -1.049445,-0.476511 -1.697344,-1.593277 -1.979543,-3.412035 -0.233443,-1.504591 -0.02314,-3.437122 0.478366,-4.396753 0.296549,-0.567391 1.148998,-1.396833 1.756185,-1.70878 1.056909,-0.542997 2.815033,-0.07202 3.703386,0.99207 0.903825,1.082626 1.287811,4.17172 0.755086,6.074436 -0.644757,2.30285 -2.693531,3.368236 -4.71348,2.451062 z m -14.643047,5.004873 c 3.041126,-0.751939 4.915081,-2.951046 4.915081,-5.767902 0,-2.806655 -1.397733,-4.442293 -5.226797,-6.116446 -0.981382,-0.429086 -2.037543,-1.029541 -2.347012,-1.334345 -0.48844,-0.481083 -0.538296,-0.623486 -0.377929,-1.079476 0.251979,-0.716514 0.911993,-1.00362 2.31483,-1.006949 1.029231,-0.0025 2.866739,0.443188 4.294657,1.041536 0.307666,0.128926 0.333461,-0.05227 0.333461,-2.342539 v -2.48227 l -1.286223,-0.284603 c -1.989752,-0.440276 -3.808883,-0.552934 -5.493715,-0.340224 -2.322476,0.293211 -3.603232,0.847573 -4.856366,2.102036 -1.223821,1.225109 -1.702244,2.354445 -1.702244,4.018211 0,2.848613 1.494506,4.574127 5.363284,6.192279 1.768299,0.739609 2.156607,1.044155 2.357426,1.848895 0.100279,0.401808 0.02201,0.620811 -0.357601,1.000391 -0.412005,0.412014 -0.658482,0.485964 -1.619673,0.485964 -1.30274,0 -3.488728,-0.671022 -4.61581,-1.416892 -0.406095,-0.268737 -0.785419,-0.488613 -0.842943,-0.488613 -0.05751,0 -0.08077,1.218494 -0.05173,2.707768 l 0.05286,2.707768 1.143303,0.35118 c 2.334115,0.716953 5.593132,0.800119 8.003125,0.204231 z M 75.549844,60.00227 V 57.620388 H 72.21521 68.880576 v -7.431473 -7.431473 h -2.95353 -2.953541 v 9.813355 9.813356 h 6.288176 6.288163 z M 58.876672,21.342564 c 5.624067,-0.676707 9.703555,-1.683006 12.797021,-3.156678 3.874541,-1.845759 5.099576,-3.817325 3.692167,-5.942133 C 73.628098,9.6202196 68.08168,7.5803604 59.543595,6.4246536 55.819189,5.920521 44.217392,5.9201751 40.48854,6.4240819 c -3.695366,0.4993841 -6.233703,1.013937 -8.720834,1.7678184 -7.8551,2.3809897 -9.903328,5.9045837 -5.248202,9.0285817 3.116869,2.091704 9.496724,3.732116 17.017841,4.375698 2.974379,0.254519 12.41325,0.09845 15.339327,-0.253619 z"
       id="path2" />
  </g>
</svg>
