<?xml version="1.0" encoding="UTF-8" standalone="no"?>
<svg
   width="65.313"
   height="63.93"
   viewBox="0 0 65.313 63.93"
   version="1.1"
   id="svg1"
   sodipodi:docname="spatial-data.svg"
   xml:space="preserve"
   inkscape:version="1.3.2 (091e20ef0f, 2023-11-25)"
   inkscape:export-filename="spatial-data.png"
   inkscape:export-xdpi="96"
   inkscape:export-ydpi="96"
   xmlns:inkscape="http://www.inkscape.org/namespaces/inkscape"
   xmlns:sodipodi="http://sodipodi.sourceforge.net/DTD/sodipodi-0.dtd"
   xmlns="http://www.w3.org/2000/svg"
   xmlns:svg="http://www.w3.org/2000/svg"><defs
     id="defs1" /><sodipodi:namedview
     id="namedview1"
     pagecolor="#ffffff"
     bordercolor="#000000"
     borderopacity="0.25"
     inkscape:showpageshadow="2"
     inkscape:pageopacity="0.0"
     inkscape:pagecheckerboard="0"
     inkscape:deskcolor="#d1d1d1"
     inkscape:zoom="8.5844611"
     inkscape:cx="34.655641"
     inkscape:cy="35.99527"
     inkscape:window-width="1920"
     inkscape:window-height="997"
     inkscape:window-x="0"
     inkscape:window-y="0"
     inkscape:window-maximized="1"
     inkscape:current-layer="svg1" /><path
     style="fill:#4a4a4a;fill-opacity:1"
     d="m 27.636187,60.383878 c -4.345266,-2.409738 -5.500795,-3.102998 -5.730506,-3.438019 -0.367586,-0.536104 -0.287789,-1.034372 0.24305,-1.517656 0.319522,-0.290897 0.469929,-0.343816 0.836583,-0.294339 0.268012,0.03616 2.183479,1.026256 4.783264,2.472435 l 4.336241,2.412114 0.03151,-13.756943 C 32.153667,38.695151 32.125791,32.464804 32.074388,32.416255 31.96525,32.313177 9.4900997,19.841232 9.0619092,19.646135 8.8217406,19.536707 8.7021288,19.568994 8.3485329,19.838694 8.1148782,20.016911 7.747476,20.22416 7.5320836,20.299246 l -0.3916226,0.13652 4.644e-4,11.231134 4.644e-4,11.231133 0.5433316,0.223409 c 0.7258661,0.298465 1.5951923,1.177882 2.0204852,2.043939 0.2824385,0.575152 0.3498324,0.886145 0.3634594,1.67721 l 0.01673,0.971135 2.33723,1.294932 c 1.285476,0.712212 2.475342,1.432048 2.644145,1.599636 0.478864,0.475414 0.430929,1.210397 -0.110493,1.694157 -0.347617,0.310596 -0.492152,0.362199 -0.864432,0.308627 C 13.845983,52.675698 12.565577,52.046297 11.2465,51.31241 9.2675316,50.211384 8.8126086,50.003218 8.6447554,50.121888 7.4121386,50.993333 6.3267659,51.273127 5.1272063,51.028662 3.7477763,50.747541 2.6674051,49.90894 2.0744141,48.659039 1.804767,48.090679 1.751133,47.802917 1.751133,46.924542 c 0,-0.883442 0.05351,-1.167254 0.332168,-1.761794 0.4018949,-0.857475 1.2605414,-1.72275 2.0191391,-2.034726 L 4.6616803,42.898033 V 31.685753 20.473473 L 4.1183487,20.250063 C 3.3885531,19.949983 2.4636347,19.015204 2.0715661,18.18146 1.6111822,17.202441 1.6116117,15.689663 2.0725509,14.712467 c 0.4098843,-0.868959 1.2255288,-1.684604 2.0944878,-2.094488 1.303069,-0.614652 3.3629274,-0.372301 4.2974207,0.50561 0.1747627,0.164181 0.3529835,0.227098 0.4920851,0.17372 0.119948,-0.04603 5.5024315,-3.012616 11.9610735,-6.5924171 6.458643,-3.579801 11.910632,-6.57200769 12.11553,-6.64934839 0.276253,-0.1042737 0.46779,-0.1046679 0.741046,-0.00152 0.202677,0.076502 6.591997,3.58709959 14.198489,7.80132849 10.82979,6.000035 13.867528,7.734831 14.003039,7.996881 0.258812,0.500488 0.258693,31.166958 -1.23e-4,31.666958 -0.170792,0.329947 -2.303694,1.533115 -23.485066,13.247903 -2.787214,1.541525 -4.898869,2.63517 -5.088096,2.63517 -0.190916,0 -2.553891,-1.236914 -5.76625,-3.018381 z m 19.707422,-7.364143 12.265367,-6.803081 0.03369,-2.382922 c 0.0204,-1.442928 -0.01207,-2.366275 -0.0823,-2.34072 -0.0638,0.02321 -5.695936,3.133761 -12.515867,6.912334 l -12.399875,6.870131 v 2.395199 c 0,2.244845 0.01361,2.387571 0.216812,2.27367 0.119246,-0.06684 5.736227,-3.182916 12.482179,-6.924611 z m -0.07931,-7.581806 12.406626,-6.875941 v -2.389389 c 0,-2.239431 -0.01361,-2.381743 -0.216812,-2.267547 -0.119246,0.06701 -5.736227,3.181963 -12.482179,6.922109 l -12.265367,6.800265 -0.03369,2.385424 c -0.01895,1.341737 0.01411,2.36696 0.07555,2.343223 0.06008,-0.02321 5.692223,-3.136376 12.515867,-6.918144 z M 6.8819498,48.318601 c 1.0520722,-0.770503 0.9215392,-2.316276 -0.245866,-2.91155 -0.5561972,-0.283612 -1.0736667,-0.2737 -1.5719562,0.03011 -1.2049139,0.734645 -1.1496327,2.353197 0.1028588,3.011552 0.5114909,0.268858 1.2463173,0.213108 1.7149634,-0.130112 z M 47.591394,37.634277 c 6.541529,-3.621764 11.93603,-6.62632 11.987779,-6.676791 0.05175,-0.05047 0.07963,-2.852446 0.06195,-6.226613 l -0.03214,-6.134848 -12.451206,6.900497 -12.451206,6.900497 -0.03365,2.370004 c -0.01851,1.303502 -0.0091,2.370004 0.02096,2.370004 0.03004,0 3.686292,-2.006831 8.125014,-4.459624 4.438722,-2.452793 8.207547,-4.494044 8.375166,-4.536114 1.068336,-0.268135 1.873984,1.258977 1.074282,2.03631 -0.187388,0.182146 -4.229384,2.476945 -8.982214,5.099553 l -8.641508,4.768379 v 2.391641 2.391641 l 0.526543,-0.304755 c 0.289599,-0.167615 5.878704,-3.268017 12.420233,-6.889781 z m 7.609865,-10.02745 c -0.674578,-0.674578 -0.357347,-1.810679 0.570627,-2.043586 0.479487,-0.120343 1.156556,0.228989 1.352431,0.697784 0.528547,1.264989 -0.961265,2.307595 -1.923058,1.345802 z M 31.892003,17.099657 c -0.374957,-0.399124 -0.376686,-1.152208 -0.0036,-1.549386 0.273347,-0.290965 0.273593,-0.295985 0.306915,-6.2649663 0.02204,-3.9475105 -0.0087,-5.9560549 -0.09054,-5.9215467 -0.06814,0.028722 -5.05278,2.7850654 -11.076976,6.1252087 L 10.074718,15.561953 v 0.884658 0.884658 l 11.01503,6.109113 11.01503,6.109113 0.03215,-6.077427 0.03215,-6.077428 z m -4.156349,-2.153415 c -1.054168,-0.521803 -1.325801,-1.374509 -0.671227,-2.107104 0.280983,-0.314475 0.445141,-0.390527 0.842948,-0.390527 0.542628,0 1.432164,0.47972 1.652319,0.891084 0.316694,0.591747 0.05232,1.387341 -0.557106,1.676533 -0.52438,0.248834 -0.635209,0.242712 -1.266934,-0.06999 z m -4.922779,-2.670147 c -0.890702,-0.470624 -1.200584,-1.117971 -0.869329,-1.816039 0.340776,-0.7181313 1.07046,-0.8901423 1.925539,-0.453914 0.984966,0.502492 1.224187,1.486861 0.515271,2.120278 -0.456401,0.407795 -0.98727,0.458357 -1.571481,0.149675 z m 24.00419,10.551272 c 6.251931,-3.459735 11.367146,-6.327775 11.367146,-6.373421 0,-0.04565 -0.91556,-0.59221 -2.034577,-1.214587 l -2.034578,-1.131596 -9.704246,5.375218 -9.704246,5.375217 -0.03369,2.372474 -0.03369,2.372474 0.405367,-0.242675 C 35.267503,29.227 40.565134,26.287103 46.817065,22.827367 Z m -3.747751,-5.450275 c 4.531372,-2.504177 8.281633,-4.591854 8.333914,-4.639282 0.05228,-0.04743 -0.831923,-0.596252 -1.964896,-1.21961 l -2.059951,-1.133378 -6.366882,3.488216 -6.366881,3.488216 v 2.33775 c 0,1.285762 0.04181,2.313762 0.09292,2.284443 0.05111,-0.02932 3.800406,-2.102179 8.331776,-4.606355 z M 6.8819498,17.841022 C 7.8488446,17.1329 7.8237545,15.661461 6.8337238,15.012768 5.6874662,14.261711 4.0578711,15.216962 4.204421,16.554036 c 0.1467303,1.33872 1.6320526,2.052657 2.6775288,1.286986 z M 39.743152,11.725895 c 2.749292,-1.506333 5.009939,-2.7487423 5.023661,-2.7609093 0.02759,-0.02446 -4.059402,-2.3015002 -4.203743,-2.3420838 -0.04969,-0.01397 -1.401664,0.6981383 -3.004395,1.5824628 l -2.914057,1.607862 v 2.3257283 c 0,1.27915 0.02246,2.325727 0.04991,2.325727 0.02745,0 2.299332,-1.232454 5.048623,-2.738787 z M 36.224059,6.0938064 C 37.024819,5.6464215 37.721422,5.2398121 37.772066,5.1902299 37.82271,5.1406477 37.4882,4.8945014 37.028711,4.6432382 36.569221,4.3919749 35.844827,3.9907173 35.418946,3.7515545 L 34.644618,3.3167131 v 1.7952602 c 0,0.9873931 0.02779,1.7952601 0.06176,1.7952601 0.03397,0 0.716924,-0.3660421 1.517684,-0.813427 z M 18.056647,55.052454 c -0.606145,-0.335961 -0.82254,-1.258988 -0.413534,-1.763916 0.512422,-0.632595 1.205705,-0.703145 1.788918,-0.182044 1.062592,0.949426 -0.129726,2.636375 -1.375384,1.94596 z m 11.047927,-9.078095 c -0.757706,-0.491305 -0.956519,-1.071789 -0.601931,-1.757486 0.185211,-0.35816 0.655377,-0.637431 1.073143,-0.637431 0.135791,0 0.462407,0.109948 0.725815,0.244329 1.030937,0.525944 1.307416,1.447514 0.635769,2.119161 -0.479934,0.479934 -1.124062,0.490979 -1.832796,0.03143 z m -4.333407,-2.409106 c -0.217616,-0.06224 -0.59394,-0.300165 -0.836275,-0.528716 -0.350523,-0.330586 -0.440608,-0.509211 -0.440608,-0.87366 0,-0.594751 0.165992,-0.888734 0.640294,-1.134005 1.021915,-0.528453 2.562594,0.636526 2.255927,1.705812 -0.1897,0.661445 -0.913205,1.032536 -1.619338,0.830569 z M 19.45513,40.612819 c -0.704656,-0.404164 -0.99806,-0.902902 -0.858986,-1.460132 0.115603,-0.463189 0.385914,-0.740326 0.881678,-0.903942 0.732897,-0.241878 1.788751,0.386479 2.02323,1.204059 0.143113,0.499006 -0.118182,1.085495 -0.593008,1.331037 -0.520519,0.269171 -0.72803,0.244745 -1.452914,-0.171022 z m -4.777021,-2.611247 c -1.27273,-0.672364 -1.28183,-2.11195 -0.0156,-2.467414 0.790944,-0.222038 2.017679,0.669885 2.017679,1.466995 0,0.658294 -0.608549,1.258024 -1.263747,1.245432 -0.156701,-0.003 -0.488952,-0.113267 -0.738335,-0.245013 z M 9.5885954,35.162531 c -0.9191003,-0.582877 -1.0377205,-1.495813 -0.2725582,-2.09769 0.4004984,-0.315032 0.9126318,-0.33747 1.4544348,-0.06372 0.94359,0.47675 1.243175,1.086497 0.894667,1.820924 -0.370333,0.780417 -1.174842,0.912332 -2.0765436,0.34049 z"
     id="path1" /></svg>
