<?xml version="1.0" encoding="UTF-8" standalone="no"?>
<!-- Created with Inkscape (http://www.inkscape.org/) -->

<svg
   version="1.1"
   id="svg1"
   width="546.1333"
   height="546.1333"
   viewBox="0 0 546.1333 546.1333"
   sodipodi:docname="statistics.svg"
   inkscape:version="1.3.2 (091e20ef0f, 2023-11-25)"
   xmlns:inkscape="http://www.inkscape.org/namespaces/inkscape"
   xmlns:sodipodi="http://sodipodi.sourceforge.net/DTD/sodipodi-0.dtd"
   xmlns="http://www.w3.org/2000/svg"
   xmlns:svg="http://www.w3.org/2000/svg">
  <defs
     id="defs1" />
  <sodipodi:namedview
     id="namedview1"
     pagecolor="#ffffff"
     bordercolor="#000000"
     borderopacity="0.25"
     inkscape:showpageshadow="2"
     inkscape:pageopacity="0.0"
     inkscape:pagecheckerboard="0"
     inkscape:deskcolor="#d1d1d1"
     inkscape:zoom="1.4245606"
     inkscape:cx="278.68242"
     inkscape:cy="239.37205"
     inkscape:window-width="1920"
     inkscape:window-height="997"
     inkscape:window-x="0"
     inkscape:window-y="0"
     inkscape:window-maximized="1"
     inkscape:current-layer="g1" />
  <g
     inkscape:groupmode="layer"
     inkscape:label="Image"
     id="g1">
    <path
       style="fill:#2a2a2a;fill-opacity:1"
       d="m 21.66055,544.95632 c -6.12896,-2.66443 -7.74636,-6.89988 -7.74636,-20.28523 0,-9.89105 0.338,-12.28773 2.1527,-15.26419 2.94427,-4.82918 7.798,-6.60248 18.07173,-6.60248 h 8.56759 v -22.85591 -22.85592 l 2.81052,-2.21075 c 3.69084,-2.90321 6.30609,-2.79111 9.50463,0.40743 2.61392,2.61392 2.61818,2.6547 2.61818,25.06667 v 22.44848 h 31.473249 31.473251 l -0.27325,-82.4 -0.27325,-82.39999 -31.199999,-0.28278 -31.200001,-0.28278 v 41.49794 c 0,38.73979 -0.13074,41.6594 -1.96711,43.92722 -2.42781,2.99823 -7.77769,3.23864 -10.81912,0.48619 -2.08581,-1.88764 -2.1471,-3.2034 -2.1471,-46.09742 0,-48.74385 -0.0298,-48.51022 6.71845,-52.62489 3.20721,-1.95555 5.58898,-2.08241 39.164856,-2.08616 40.001074,-0.004 41.019064,0.16597 44.967614,7.52845 1.8407,3.4322 1.94908,8.33555 1.94908,88.18425 v 84.54997 h 14.93333 14.93333 l 0.004,-40.8 c 0.004,-39.04111 0.0968,-40.95221 2.15669,-44.33085 3.86072,-6.33233 5.681,-6.60248 44.48837,-6.60248 39.14823,0 40.26416,0.19017 44.20187,7.53244 1.7891,3.33598 1.94908,6.94068 1.94908,43.91758 v 40.28331 h 14.93333 14.93333 v -68.01664 c 0,-63.83634 0.11979,-68.24 1.94909,-71.65091 3.93869,-7.34411 5.04562,-7.53244 44.27306,-7.53244 38.8365,0 40.55125,0.26348 44.56646,6.84796 1.90512,3.12417 2.00361,6.64796 2.0074,71.8187 l 0.004,68.53333 h 14.93333 14.93333 l 0.004,-102.66666 c 0.004,-100.5638 0.0474,-102.73787 2.12358,-106.14308 1.16578,-1.91203 3.68399,-4.43023 5.59602,-5.59601 3.28225,-2.00121 5.43341,-2.11982 38.51521,-2.12358 38.81915,-0.004 40.53435,0.25908 44.54981,6.84397 1.92359,3.15447 2.00357,7.39726 2.0074,106.48537 l 0.004,103.19999 h 8.56759 c 10.27373,0 15.12746,1.7733 18.07173,6.60248 1.8147,2.97646 2.1527,5.37314 2.1527,15.26419 0,13.51933 -1.63265,17.67829 -7.98112,20.33085 -5.45901,2.28092 -497.40753,2.23627 -502.65654,-0.0456 z m 495.7123,-20.28523 v -5.86667 H 273.1062 28.83954 v 5.86667 5.86666 H 273.1062 517.37285 Z m -274.38651,-60 -0.28014,-38.13333 h -30.93333 -30.93333 l -0.28014,38.13333 -0.28014,38.13333 h 31.49361 31.49361 z m 122.66132,-27.73333 -0.2748,-65.86667 H 334.43953 303.5062 l -0.2748,65.86667 -0.27481,65.86666 h 31.48294 31.48294 z m 122.92519,-34.4 V 302.2711 h -31.46666 -31.46667 v 100.26666 100.26666 h 31.46667 31.46666 z M 246.97287,342.78877 c -55.56822,-4.98998 -103.70406,-38.28478 -129.64491,-89.67332 -4.69334,-9.29745 -11.27741,-29.60295 -13.45997,-41.51101 -2.82018,-15.38694 -2.53292,-43.94585 0.59011,-58.66667 10.46078,-49.30837 39.48966,-88.059462 83.44698,-111.394651 20.01845,-10.626996 47.02524,-17.657549 67.86779,-17.667708 14.47243,-0.0071 13.06666,-8.38077 13.06666,77.834249 v 73.57186 l 74.22798,0.29479 74.22797,0.2948 2.17712,2.66666 c 2.00741,2.45881 2.12607,3.6228 1.52229,14.93334 -1.48964,27.905 -10.82731,55.33415 -27.21773,79.95132 -7.66053,11.50553 -28.90244,33.05322 -40.5399,41.12347 -30.65779,21.26032 -69.38895,31.55426 -106.26439,28.24287 z m 37.33333,-16.59758 c 30.74329,-5.35795 54.55927,-17.29317 77.78037,-38.97912 4.44746,-4.15344 8.07435,-8.10429 8.05975,-8.77967 -0.0146,-0.67538 -6.3113,-6.02797 -13.99266,-11.89463 -18.86038,-14.40468 -20.32268,-16.46842 -15.77004,-22.25615 4.44661,-5.65296 7.27364,-4.26472 33.60846,16.50381 l 6.48588,5.11498 4.94515,-8.21465 c 6.1998,-10.29882 10.38649,-19.57804 13.97139,-30.96566 3.0993,-9.84506 5.97836,-24.89706 5.97836,-31.25538 v -4.12695 h -60.48 c -33.264,0 -60.02399,0.40546 -59.46666,0.90101 0.55733,0.49556 7.49333,5.84763 15.41333,11.8935 7.92,6.04586 15.24,11.93358 16.26667,13.08382 2.49207,2.79202 2.36461,7.75705 -0.26667,10.38834 -4.46534,4.46534 -6.78644,3.28165 -32.67178,-16.66171 -13.41718,-10.33727 -25.71488,-20.02708 -27.32822,-21.5329 l -2.93333,-2.73785 V 112.78847 38.904966 l -5.6,0.591206 c -49.7697,5.254321 -92.64766,34.316354 -115.28253,78.136768 -30.42463,58.90115 -16.32075,131.66137 33.9492,175.13982 19.6804,17.02157 45.33015,29.02312 71.46667,33.43935 11.94554,2.01841 34.22353,2.00825 45.86666,-0.0209 z m 6.0526,-170.38883 -2.31927,-2.46875 V 79.079789 4.8259602 l 2.90805,-2.2874698 c 3.26281,-2.566531 7.90751,-2.4372786 24.29195,0.6759962 39.09018,7.4276824 76.39677,31.3912034 99.5551,63.9482324 16.51375,23.215789 28.35241,55.694661 29.26205,80.279251 0.43556,11.77167 7.23159,10.82914 -78.08272,10.82914 h -73.29589 z m 136.95376,-18.96868 c -1.62629,-14.37448 -9.60118,-35.94534 -19.02625,-51.463125 -18.93343,-31.172699 -50.47449,-55.17964 -84.51345,-64.325969 -9.09574,-2.444044 -19.62033,-4.397578 -20.25774,-3.760166 -0.81802,0.818027 -0.65138,124.52201 0.16886,125.34224 0.39111,0.39111 28.53311,0.71111 62.53777,0.71111 h 61.82666 z"
       id="path1" />
  </g>
</svg>
